<svg width="87" height="87" viewBox="0 0 87 87" fill="none" xmlns="http://www.w3.org/2000/svg">
<g filter="url(#filter0_d_123_37)">
<circle cx="43.5" cy="39.5" r="33.5" fill="#1D9BF0"/>
<circle cx="43.5" cy="39.5" r="30" stroke="white" stroke-width="7"/>
</g>
<path d="M57.075 31.5C56.1125 31.9375 55.075 32.225 54 32.3625C55.1 31.7 55.95 30.65 56.35 29.3875C55.3125 30.0125 54.1625 30.45 52.95 30.7C51.9625 29.625 50.575 29 49 29C46.0625 29 43.6625 31.4 43.6625 34.3625C43.6625 34.7875 43.7125 35.2 43.8 35.5875C39.35 35.3625 35.3875 33.225 32.75 29.9875C32.2875 30.775 32.025 31.7 32.025 32.675C32.025 34.5375 32.9625 36.1875 34.4125 37.125C33.525 37.125 32.7 36.875 31.975 36.5V36.5375C31.975 39.1375 33.825 41.3125 36.275 41.8C35.4885 42.0153 34.6627 42.0452 33.8625 41.8875C34.2021 42.9531 34.867 43.8855 35.7638 44.5537C36.6607 45.2218 37.7444 45.5921 38.8625 45.6125C36.9671 47.113 34.6175 47.9241 32.2 47.9125C31.775 47.9125 31.35 47.8875 30.925 47.8375C33.3 49.3625 36.125 50.25 39.15 50.25C49 50.25 54.4125 42.075 54.4125 34.9875C54.4125 34.75 54.4125 34.525 54.4 34.2875C55.45 33.5375 56.35 32.5875 57.075 31.5Z" fill="white"/>
<defs>
<filter id="filter0_d_123_37" x="0" y="0" width="87" height="87" filterUnits="userSpaceOnUse" color-interpolation-filters="sRGB">
<feFlood flood-opacity="0" result="BackgroundImageFix"/>
<feColorMatrix in="SourceAlpha" type="matrix" values="0 0 0 0 0 0 0 0 0 0 0 0 0 0 0 0 0 0 127 0" result="hardAlpha"/>
<feOffset dy="4"/>
<feGaussianBlur stdDeviation="5"/>
<feComposite in2="hardAlpha" operator="out"/>
<feColorMatrix type="matrix" values="0 0 0 0 0 0 0 0 0 0 0 0 0 0 0 0 0 0 0.15 0"/>
<feBlend mode="normal" in2="BackgroundImageFix" result="effect1_dropShadow_123_37"/>
<feBlend mode="normal" in="SourceGraphic" in2="effect1_dropShadow_123_37" result="shape"/>
</filter>
</defs>
</svg>
