<svg width="87" height="87" viewBox="0 0 87 87" fill="none" xmlns="http://www.w3.org/2000/svg">
<g filter="url(#filter0_d_123_43)">
<circle cx="43.5" cy="39.5" r="33.5" fill="#5865F2"/>
<circle cx="43.5" cy="39.5" r="30" stroke="white" stroke-width="7"/>
</g>
<path d="M53.0875 30.6626C51.425 29.8876 49.625 29.3251 47.75 29.0001C47.7336 28.9995 47.7172 29.0026 47.7021 29.0091C47.687 29.0156 47.6735 29.0253 47.6625 29.0376C47.4375 29.4501 47.175 29.9876 47 30.4001C45.0113 30.1001 42.9888 30.1001 41 30.4001C40.825 29.9751 40.5625 29.4501 40.325 29.0376C40.3125 29.0126 40.275 29.0001 40.2375 29.0001C38.3625 29.3251 36.575 29.8876 34.9 30.6626C34.8875 30.6626 34.875 30.6751 34.8625 30.6876C31.4625 35.7751 30.525 40.7251 30.9875 45.6251C30.9875 45.6501 31 45.6751 31.025 45.6876C33.275 47.3376 35.4375 48.3376 37.575 49.0001C37.6125 49.0126 37.65 49.0001 37.6625 48.9751C38.1625 48.2876 38.6125 47.5626 39 46.8001C39.025 46.7501 39 46.7001 38.95 46.6876C38.2375 46.4126 37.5625 46.0876 36.9 45.7126C36.85 45.6876 36.85 45.6126 36.8875 45.5751C37.025 45.4751 37.1625 45.3626 37.3 45.2626C37.325 45.2376 37.3625 45.2376 37.3875 45.2501C41.6875 47.2126 46.325 47.2126 50.575 45.2501C50.6 45.2376 50.6375 45.2376 50.6625 45.2626C50.8 45.3751 50.9375 45.4751 51.075 45.5876C51.125 45.6251 51.125 45.7001 51.0625 45.7251C50.4125 46.1126 49.725 46.4251 49.0125 46.7001C48.9625 46.7126 48.95 46.7751 48.9625 46.8126C49.3625 47.5751 49.8125 48.3001 50.3 48.9876C50.3375 49.0001 50.375 49.0126 50.4125 49.0001C52.5625 48.3376 54.725 47.3376 56.975 45.6876C57 45.6751 57.0125 45.6501 57.0125 45.6251C57.5625 39.9626 56.1 35.0501 53.1375 30.6876C53.125 30.6751 53.1125 30.6626 53.0875 30.6626ZM39.65 42.6376C38.3625 42.6376 37.2875 41.4501 37.2875 39.9876C37.2875 38.5251 38.3375 37.3376 39.65 37.3376C40.975 37.3376 42.025 38.5376 42.0125 39.9876C42.0125 41.4501 40.9625 42.6376 39.65 42.6376ZM48.3625 42.6376C47.075 42.6376 46 41.4501 46 39.9876C46 38.5251 47.05 37.3376 48.3625 37.3376C49.6875 37.3376 50.7375 38.5376 50.725 39.9876C50.725 41.4501 49.6875 42.6376 48.3625 42.6376Z" fill="white"/>
<defs>
<filter id="filter0_d_123_43" x="0" y="0" width="87" height="87" filterUnits="userSpaceOnUse" color-interpolation-filters="sRGB">
<feFlood flood-opacity="0" result="BackgroundImageFix"/>
<feColorMatrix in="SourceAlpha" type="matrix" values="0 0 0 0 0 0 0 0 0 0 0 0 0 0 0 0 0 0 127 0" result="hardAlpha"/>
<feOffset dy="4"/>
<feGaussianBlur stdDeviation="5"/>
<feComposite in2="hardAlpha" operator="out"/>
<feColorMatrix type="matrix" values="0 0 0 0 0 0 0 0 0 0 0 0 0 0 0 0 0 0 0.15 0"/>
<feBlend mode="normal" in2="BackgroundImageFix" result="effect1_dropShadow_123_43"/>
<feBlend mode="normal" in="SourceGraphic" in2="effect1_dropShadow_123_43" result="shape"/>
</filter>
</defs>
</svg>
