<svg width="87" height="87" viewBox="0 0 87 87" fill="none" xmlns="http://www.w3.org/2000/svg">
<g filter="url(#filter0_d_123_24)">
<circle cx="43.5" cy="39.5" r="33.5" fill="#2B6AFF"/>
<circle cx="43.5" cy="39.5" r="30" stroke="white" stroke-width="7"/>
</g>
<g clip-path="url(#clip0_123_24)">
<path d="M54.9224 41.9262C54.3987 42.2575 53.7824 42.2988 53.3149 42.035C52.7199 41.6975 52.3924 40.9125 52.3924 39.8175V36.545C52.3924 34.965 51.7674 33.84 50.7224 33.5363C48.9524 33.02 47.6199 35.1862 47.1199 36.0012L43.9974 41.0638V34.8763C43.9624 33.4513 43.4999 32.6 42.6224 32.3425C42.0399 32.1737 41.1712 32.2412 40.3262 33.5337L33.3299 44.7675C32.3934 42.9895 31.905 41.0096 31.9074 39C31.9074 32.2325 37.3312 26.7275 43.9974 26.7275C50.6624 26.7275 56.0849 32.2325 56.0849 39C56.0899 39.0225 56.0874 39.0425 56.0887 39.0663C56.1512 40.3775 55.7262 41.42 54.9224 41.9288V41.9262ZM58.7724 39.0013L58.7712 38.9325C58.7337 30.6913 52.1212 24 43.9962 24C35.8499 24 29.2212 30.7287 29.2212 39C29.2212 47.27 35.8499 54 43.9962 54C47.7349 54 51.3037 52.5787 54.0424 50C54.5862 49.4875 54.6174 48.625 54.1137 48.0738C53.9949 47.9426 53.851 47.8365 53.6907 47.7617C53.5303 47.6868 53.3566 47.6448 53.1798 47.6379C53.003 47.631 52.8266 47.6595 52.6609 47.7217C52.4952 47.7839 52.3436 47.8785 52.2149 48C49.9952 50.1017 47.0543 51.2729 43.9974 51.2725C40.4274 51.2725 37.2162 49.6937 35.0012 47.1875L41.3112 37.0562V41.7275C41.3112 43.97 42.1812 44.695 42.9112 44.9075C43.6412 45.12 44.7562 44.975 45.9274 43.0725C47.1749 41.055 48.4587 38.9513 49.7062 36.9725V39.8175C49.7062 41.915 50.5462 43.5925 52.0099 44.4175C53.3299 45.1637 54.9899 45.0963 56.3412 44.2425C57.9812 43.2075 58.8637 41.3 58.7712 39.0013H58.7724Z" fill="white"/>
</g>
<defs>
<filter id="filter0_d_123_24" x="0" y="0" width="87" height="87" filterUnits="userSpaceOnUse" color-interpolation-filters="sRGB">
<feFlood flood-opacity="0" result="BackgroundImageFix"/>
<feColorMatrix in="SourceAlpha" type="matrix" values="0 0 0 0 0 0 0 0 0 0 0 0 0 0 0 0 0 0 127 0" result="hardAlpha"/>
<feOffset dy="4"/>
<feGaussianBlur stdDeviation="5"/>
<feComposite in2="hardAlpha" operator="out"/>
<feColorMatrix type="matrix" values="0 0 0 0 0 0 0 0 0 0 0 0 0 0 0 0 0 0 0.15 0"/>
<feBlend mode="normal" in2="BackgroundImageFix" result="effect1_dropShadow_123_24"/>
<feBlend mode="normal" in="SourceGraphic" in2="effect1_dropShadow_123_24" result="shape"/>
</filter>
<clipPath id="clip0_123_24">
<rect width="30" height="30" fill="white" transform="translate(29 24)"/>
</clipPath>
</defs>
</svg>
