<svg width="16" height="16" viewBox="0 0 16 16" fill="none" xmlns="http://www.w3.org/2000/svg">
<g id="mingcute:check-line" clip-path="url(#clip0_59_59)">
<g id="Group">
<path id="Vector" fill-rule="evenodd" clip-rule="evenodd" d="M14.128 3.64331C14.253 3.76833 14.3232 3.93787 14.3232 4.11464C14.3232 4.29142 14.253 4.46096 14.128 4.58598L6.63334 12.0813C6.56524 12.1494 6.48438 12.2035 6.39539 12.2404C6.30639 12.2772 6.211 12.2962 6.11467 12.2962C6.01834 12.2962 5.92295 12.2772 5.83396 12.2404C5.74496 12.2035 5.66411 12.1494 5.59601 12.0813L1.87201 8.35731C1.81007 8.29537 1.76093 8.22184 1.72741 8.14091C1.69389 8.05998 1.67664 7.97324 1.67664 7.88564C1.67664 7.79805 1.69389 7.71131 1.72741 7.63038C1.76093 7.54945 1.81007 7.47592 1.87201 7.41398C1.93395 7.35204 2.00748 7.3029 2.08841 7.26938C2.16934 7.23586 2.25608 7.21861 2.34367 7.21861C2.43127 7.21861 2.51801 7.23586 2.59894 7.26938C2.67987 7.3029 2.7534 7.35204 2.81534 7.41398L6.11534 10.714L13.1847 3.64331C13.3097 3.51833 13.4792 3.44812 13.656 3.44812C13.8328 3.44812 14.003 3.51833 14.128 3.64331Z" fill="#E0CA00"/>
</g>
</g>
<defs>
<clipPath id="clip0_59_59">
<rect width="16" height="16" fill="white"/>
</clipPath>
</defs>
</svg>
