<svg width="24" height="24" viewBox="0 0 24 24" fill="none" xmlns="http://www.w3.org/2000/svg">
<g id="ep:arrow-up-bold">
<path id="Vector" d="M2.45401 7.93955C2.7353 7.65834 3.11676 7.50037 3.51451 7.50037C3.91226 7.50037 4.29372 7.65834 4.57501 7.93955L12 15.3645L19.425 7.93955C19.7079 7.66631 20.0868 7.51512 20.4801 7.51854C20.8734 7.52196 21.2496 7.67971 21.5277 7.95782C21.8059 8.23593 21.9636 8.61215 21.967 9.00545C21.9704 9.39874 21.8192 9.77765 21.546 10.0605L13.0605 18.546C12.7792 18.8273 12.3978 18.9852 12 18.9852C11.6023 18.9852 11.2208 18.8273 10.9395 18.546L2.45401 10.0605C2.1728 9.77926 2.01483 9.3978 2.01483 9.00005C2.01483 8.6023 2.1728 8.22084 2.45401 7.93955Z" fill="black"/>
</g>
</svg>
