<svg width="24" height="24" viewBox="0 0 24 24" fill="none" xmlns="http://www.w3.org/2000/svg">
<g id="fluent:wallet-16-regular">
<path id="Vector" d="M15.75 12C15.5511 12 15.3603 12.079 15.2197 12.2197C15.079 12.3603 15 12.5511 15 12.75C15 12.9489 15.079 13.1397 15.2197 13.2803C15.3603 13.421 15.5511 13.5 15.75 13.5H17.25C17.4489 13.5 17.6397 13.421 17.7803 13.2803C17.921 13.1397 18 12.9489 18 12.75C18 12.5511 17.921 12.3603 17.7803 12.2197C17.6397 12.079 17.4489 12 17.25 12H15.75ZM5.25 3C4.65326 3 4.08097 3.23705 3.65901 3.65901C3.23705 4.08097 3 4.65326 3 5.25V17.25C3 18.2446 3.39509 19.1984 4.09835 19.9016C4.80161 20.6049 5.75544 21 6.75 21H18C18.7956 21 19.5587 20.6839 20.1213 20.1213C20.6839 19.5587 21 18.7956 21 18V9C21 8.4734 20.8614 7.95609 20.5981 7.50004C20.3348 7.044 19.956 6.6653 19.5 6.402V6C19.5 5.20435 19.1839 4.44129 18.6213 3.87868C18.0587 3.31607 17.2956 3 16.5 3H5.25ZM5.25 4.5H16.5C16.8978 4.5 17.2794 4.65804 17.5607 4.93934C17.842 5.22064 18 5.60218 18 6H5.25C5.05109 6 4.86032 5.92098 4.71967 5.78033C4.57902 5.63968 4.5 5.44891 4.5 5.25C4.5 5.05109 4.57902 4.86032 4.71967 4.71967C4.86032 4.57902 5.05109 4.5 5.25 4.5ZM5.25 7.5H18C18.3978 7.5 18.7794 7.65804 19.0607 7.93934C19.342 8.22064 19.5 8.60218 19.5 9V18C19.5 18.3978 19.342 18.7794 19.0607 19.0607C18.7794 19.342 18.3978 19.5 18 19.5H6.75C6.15326 19.5 5.58097 19.2629 5.15901 18.841C4.73705 18.419 4.5 17.8467 4.5 17.25V7.3725C4.734 7.455 4.9875 7.5 5.25 7.5Z" fill="#6F00A7"/>
</g>
</svg>
